<svg width="63" height="63" viewBox="0 0 63 63" fill="none" xmlns="http://www.w3.org/2000/svg">
<path d="M15.3005 2.69971V8.8999C15.3005 9.9999 14.4006 11 13.2006 11C12.1006 11 11.1006 10.0999 11.1006 8.8999V2.69971C11.1006 1.59971 12.0006 0.599609 13.2006 0.599609C14.4006 0.599609 15.3005 1.49971 15.3005 2.69971Z" fill="#6D6D6D"/>
<path d="M42.0004 0.599609C40.9004 0.599609 39.9004 1.49971 39.9004 2.69971V8.8999C39.9004 9.9999 40.8004 11 42.0004 11C43.2004 11 44.1004 10.0999 44.1004 8.8999V2.69971C44.1004 1.49971 43.2004 0.599609 42.0004 0.599609Z" fill="#6D6D6D"/>
<path d="M27.6 0.599609C26.5 0.599609 25.5 1.49971 25.5 2.69971V8.8999C25.5 9.9999 26.4 11 27.6 11C28.8 11 29.7 10.0999 29.7 8.8999V2.69971C29.7 1.49971 28.8 0.599609 27.6 0.599609Z" fill="#6D6D6D"/>
<path d="M17.4002 25.2998H13.3002C12.2002 25.2998 11.2002 26.1999 11.2002 27.3999V29.5C11.2002 30.6 12.1002 31.5996 13.3002 31.5996H17.4002C18.5002 31.5996 19.5002 30.7 19.5002 29.5V27.3999C19.4002 26.1999 18.5002 25.2998 17.4002 25.2998Z" fill="#6D6D6D"/>
<path d="M29.7 25.2998H25.6C24.5 25.2998 23.5 26.1999 23.5 27.3999V29.5C23.5 30.6 24.4 31.5996 25.6 31.5996H29.7C30.8 31.5996 31.8 30.7 31.8 29.5V27.3999C31.7 26.1999 30.8 25.2998 29.7 25.2998Z" fill="#6D6D6D"/>
<path d="M42.0008 25.2998H37.9008C36.8008 25.2998 35.8008 26.1999 35.8008 27.3999V29.5C35.8008 30.6 36.7008 31.5996 37.9008 31.5996H42.0008C43.1008 31.5996 44.1008 30.7 44.1008 29.5V27.3999C44.1008 26.1999 43.2008 25.2998 42.0008 25.2998Z" fill="#6D6D6D"/>
<path d="M17.4002 33.5H13.3002C12.2002 33.5 11.2002 34.3996 11.2002 35.5996V37.6997C11.2002 38.7997 12.1002 39.7998 13.3002 39.7998H17.4002C18.5002 39.7998 19.5002 38.8997 19.5002 37.6997V35.5996C19.4002 34.3996 18.5002 33.5 17.4002 33.5Z" fill="#6D6D6D"/>
<path d="M29.7 33.5H25.6C24.5 33.5 23.5 34.3996 23.5 35.5996V37.6997C23.5 38.7997 24.4 39.7998 25.6 39.7998H29.7C30.8 39.7998 31.8 38.8997 31.8 37.6997V35.5996C31.7 34.3996 30.8 33.5 29.7 33.5Z" fill="#6D6D6D"/>
<path d="M17.4002 41.6997H13.3002C12.2002 41.6997 11.2002 42.5998 11.2002 43.7998V45.8999C11.2002 46.9999 12.1002 48 13.3002 48H17.4002C18.5002 48 19.5002 47.0999 19.5002 45.8999V43.7998C19.4002 42.5998 18.5002 41.6997 17.4002 41.6997Z" fill="#6D6D6D"/>
<path d="M29.7 41.6997H25.6C24.5 41.6997 23.5 42.5998 23.5 43.7998V45.8999C23.5 46.9999 24.4 48 25.6 48H29.7C30.8 48 31.8 47.0999 31.8 45.8999V43.7998C31.7 42.5998 30.8 41.6997 29.7 41.6997Z" fill="#6D6D6D"/>
<path d="M9.1004 52C6.8004 52 5.00037 50.1999 5.00037 47.8999V21.1997H50.2004V31.5996C51.6004 31.7996 53.0004 32.0997 54.3004 32.6997V13C54.3004 8.5 50.6004 4.7998 46.1004 4.7998V8.8999C46.1004 11.1999 44.3004 13 42.0004 13C39.7004 13 37.9004 11.1999 37.9004 8.8999V4.7998H31.7004V8.8999C31.7004 11.1999 29.9004 13 27.6004 13C25.3004 13 23.5004 11.1999 23.5004 8.8999V4.7998H17.3004V8.8999C17.3004 11.1999 15.5004 13 13.2004 13C10.9004 13 9.1004 11.1999 9.1004 8.8999V4.7998C4.6004 4.7998 0.900391 8.5 0.900391 13V47.8999C0.900391 52.3999 4.6004 56.0996 9.1004 56.0996H33.9004C33.2004 54.7996 32.6004 53.4 32.2004 52H9.1004Z" fill="#6D6D6D"/>
<path d="M48.2008 33.5C40.3008 33.5 33.8008 39.8999 33.8008 47.8999C33.8008 55.8999 40.2008 62.2998 48.2008 62.2998C56.1008 62.2998 62.6008 55.8999 62.6008 47.8999C62.6008 39.8999 56.1008 33.5 48.2008 33.5ZM48.2008 58.1997C42.5008 58.1997 37.9008 53.5999 37.9008 47.8999C37.9008 42.1999 42.5008 37.5996 48.2008 37.5996C53.9008 37.5996 58.5008 42.1999 58.5008 47.8999C58.5008 53.5999 53.9008 58.1997 48.2008 58.1997Z" fill="#631363"/>
<path d="M56.4008 47.8999C56.4008 48.9999 55.5008 50 54.3008 50H50.2008V54.0996C50.2008 55.1996 49.3008 56.1997 48.1008 56.1997C47.0008 56.1997 46.0008 55.2996 46.0008 54.0996V50H41.9008C40.8008 50 39.8008 49.0999 39.8008 47.8999C39.8008 46.6999 40.7008 45.7998 41.9008 45.7998H46.0008V41.6997C46.0008 40.5997 46.9008 39.5996 48.1008 39.5996C49.2008 39.5996 50.2008 40.4997 50.2008 41.6997V45.7998H54.3008C55.5008 45.7998 56.4008 46.6999 56.4008 47.8999Z" fill="#631363"/>
</svg>
